<?xml version="1.0" encoding="UTF-8"?>
<svg width="1200pt" height="1200pt" version="1.1" viewBox="0 0 1200 1200" xmlns="http://www.w3.org/2000/svg">
 <path d="m284.06 387.38c0.19922 3.4922 0.66016 6.9648 1.3789 10.387 1.4141 8.6758 3.793 17.164 7.0859 25.312 3.3906 7.2656 7.4062 14.223 12 20.793 5.3594 7.8789 11.473 15.211 18.254 21.902 3.3555 3.2891 7.0352 6.2305 10.977 8.7852 5.0938 3.457 10.453 6.5039 16.031 9.1016 5.5664 2.3672 11.324 4.25 17.215 5.625 3.7422 0.99219 7.5469 1.7266 11.391 2.1953 6.4141 0.82422 12.816 1.4609 19.211 1.875-0.27344 0.26172-0.55469 0.5625-0.83594 0.84375-2.7305 2.832-5.2227 5.8906-7.4453 9.1406-3.4336 5.0898-5.8867 10.777-7.2383 16.77-0.65234 2.7188-1.1641 5.4688-1.5273 8.2422-1.9766 13.199-1.3711 26.656 1.7812 39.629 1.8867 9.1914 4.4492 18.234 7.6602 27.055 4.2578 11.168 11.629 20.883 21.234 27.992 9.5312 6.6328 20.5 10.906 32.008 12.48 9.1562 1.1016 18.426 0.75391 27.477-1.0234 14.234-1.6719 28.168-5.3125 41.398-10.828 9.6055-4.582 18.699-10.156 27.141-16.629 5.9141-4.4727 11.691-9.1211 17.129-14.156 1.6953-1.5547 3.3477-3.1602 5.0156-4.6875 0.20703 3.3477 0.375 6.7031 0.40234 10.086 0.13281 15.648 0.34766 31.32 1.3984 46.941 1.0508 15.617 2.5977 30.938 3.918 46.473 1.3672 16.07 1.875 32.117 2.3984 48.242 0.52344 16.125 1.332 31.988 2.5312 47.953s2.8125 31.715 4.3125 47.57c1.5 15.852 2.6172 31.762 3.5898 47.664 0.9375 15.262 1.1719 30.562 2.1953 45.816 1.0391 15.496 1.875 30.992 3.3477 46.453 1.0547 11 2.1641 21.984 3.3281 32.953-1.7539-2.2695-3.5156-4.5469-5.2422-6.8359l0.003907-0.003906c-10.375-13.777-21.695-26.816-33.883-39.016-10.883-10.82-22.5-21.008-34.039-31.125-15.012-13.629-31.492-25.547-49.137-35.531-3.8438-2.0352-7.8398-3.7734-11.953-5.1953-6.0938-2.2891-12.418-3.9141-18.863-4.8555-9.3633-0.94922-18.812-0.58984-28.078 1.0664-13.457 1.8398-26.664 5.1875-39.375 9.9766-4.6094 1.8828-9.1055 4.0312-13.469 6.4297-5.7109 3.0391-11.344 6.207-16.762 9.75h-0.003906c-10.375 7.168-19.82 15.59-28.125 25.078-3.5547 4-6.7422 8.3125-9.5234 12.883-3.4883 5.4492-6.5508 11.16-9.1602 17.082-5.0273 12.148-6.7031 25.422-4.8555 38.438 1.7148 11.875 4.5 23.574 8.3242 34.949 4 12.047 9.9922 23.34 17.719 33.414 5.9492 7.3242 12.73 13.93 20.203 19.688 4.0117 3.2734 7.9766 6.5625 12.066 9.7891v-0.003906c16.594 12.953 35.016 23.379 54.664 30.938 7.4453 2.8672 14.859 5.7734 22.352 8.5234 14.406 5.5977 29.117 10.379 44.062 14.316 17.391 3.5859 35.109 5.3477 52.867 5.2578 16.586 0.46094 33.16 0.51562 49.754 0.36719l23.84-0.1875c8.5352 0.015624 17.055-0.74219 25.453-2.2617l0.83594-0.16016h-0.003906c3.0312 0.9375 6.2188 1.2539 9.375 0.9375 15.16-1.6016 30.336-3.1953 45.477-4.9414l0.003906 0.003906c17.254-1.7344 34.324-4.9883 51.008-9.7227 7.5-2.25 14.727-5.25 21.977-8.2109 6.9922-2.8125 13.996-5.7461 20.805-9.0078l-0.003906-0.003906c16.172-7.418 31.238-17.039 44.766-28.594 6.5156-5.7852 12.262-12.32 18.262-18.617 5.3633-5.625 10.602-11.316 15.469-17.391 5.7773-7.5586 11.07-15.473 15.855-23.691 1.875-3.0391 3.3555-6.3672 5.0078-9.5234l-0.003906-0.003906c1.7656-3.3398 3.332-6.7852 4.6875-10.312 2.3633-6.2148 4.5859-12.348 6.4297-18.75h0.003906c1.4023-4.5938 2.25-9.3398 2.5312-14.137 0.22656-5.375-0.039062-10.762-0.79688-16.086-1.0781-7.7812-2.5039-15.441-4.2266-23.102h-0.003906c-2.2305-9.8789-5.2656-19.555-9.0742-28.941-3.9492-10.559-9.582-20.41-16.676-29.172-4.457-5.4727-9.9336-10.02-16.125-13.398-5.9062-2.7695-12.121-4.8125-18.516-6.0859-5.5117-1.1133-11.125-1.625-16.746-1.5273-5.1602-0.066407-10.324 0.20312-15.449 0.80859-3.6953 0.41406-7.3672 1.125-11.055 1.6875-6.2891 1.043-12.516 2.4141-18.664 4.1055-5.1914 1.2969-10.301 2.8906-15.309 4.7695-10.508 4.2656-20.477 9.7617-29.691 16.371-17.637 12.629-33.094 28.055-45.758 45.664-6.918 9.3281-13.039 19.273-19.012 29.25-2.6719 4.4922-5.2695 9.0273-7.668 13.66-1.5195-15-2.8594-30.086-3.8359-45.168-1.9688-30.609-2.8789-61.266-5.2891-91.875-2.4844-31.492-6.0391-62.812-7.6016-94.398-0.79688-16.219-1.0781-32.43-1.8203-48.637-0.74219-15.777-2.5703-31.461-3.9102-47.195-0.054688-0.60156-0.074219-1.2109-0.12109-1.8203 1.0703 0.9375 2.1094 1.9297 3.2344 2.8125v0.003906c3.1094 2.418 6.3516 4.6641 9.7031 6.7305 4.3984 2.8867 8.9609 5.5781 13.602 8.043 6.2734 3.2578 12.922 5.7266 19.801 7.3398 5.8008 1.1523 11.73 1.4961 17.625 1.0234 4.6016-0.29688 9.1719-0.97656 13.66-2.0352 6.0391-1.2188 12.008-2.8125 17.906-4.5938 6.8984-2.3594 13.504-5.5078 19.688-9.375 9.4766-5.9023 17.988-13.223 25.238-21.711 6.1797-7.0469 10.969-15.203 14.117-24.027 1.7148-4.5938 3.1875-9.375 4.4531-14.062 1.9648-6.5859 3.2891-13.34 3.957-20.176 0.26172-3.6641 0.32031-7.293 0.23438-10.922 3.25 2.0273 6.6797 3.7539 10.246 5.1562 3.1523 1.2383 6.4336 2.1328 9.7773 2.6602 2.5156 0.30859 5.0547 0.41016 7.5859 0.3125h2.3633c3.957-0.125 7.8984-0.53906 11.793-1.2383 9.6328-1.4492 19.184-3.418 28.602-5.8984 7.2617-1.9961 14.332-4.6289 21.133-7.8633 3.4023-1.5547 6.7109-3.2617 10.051-4.9766v-0.003906c11.289-4.8945 21.297-12.332 29.238-21.73 6.5938-9.6211 10.457-20.844 11.176-32.484 1.0625-13.156 0.75-26.387-0.9375-39.477-1.1055-15.293-4.4414-30.34-9.8984-44.664-1.668-3.8906-3.8906-7.5938-5.9336-11.25-2.0039-3.8047-4.4219-7.3789-7.2109-10.648-3.8672-4.6523-8.2109-8.8828-12.957-12.629-2.8125-2.0703-5.6719-4.0039-8.5859-5.9336l-0.9375-0.60156c3.6641-3.2539 7.1523-6.7227 10.668-10.152 2.3633-2.4297 4.582-5 6.6367-7.6992 1.0781-1.3398 1.9883-2.8125 2.9727-4.2656 3.5781-5.0859 6.6016-10.543 9.0195-16.273 1.9023-5.0586 3.3359-10.281 4.293-15.602 1.0938-5.7461 1.5703-11.598 1.4141-17.445-0.14453-6.7344-0.76953-13.453-1.875-20.102-1.4766-9.0898-3.6289-18.059-6.4375-26.828-2.0312-5.4766-4.6367-10.723-7.7734-15.648-2.0898-3.7539-4.4805-7.332-7.1523-10.695-7.9102-10.746-19.289-18.426-32.215-21.742-3.3203-0.62109-6.6953-0.91406-10.078-0.87109 0.19531-0.41406 0.39453-0.81641 0.58203-1.2266v-0.003906c2.1523-5.2383 3.7031-10.703 4.6211-16.293 1.1055-6.5938 1.4023-13.301 0.88281-19.969-0.98828-10.449-2.9844-20.777-5.9531-30.844-3.0312-11.047-8.1211-21.422-15-30.582-3.875-5.0156-8.1484-9.7188-12.77-14.062-3.6797-3.5859-7.6992-6.8125-12-9.625-4.9883-3.4648-10.332-6.3906-15.938-8.7305-7.2539-2.8125-14.992-4.1523-22.77-3.9375-5.5703 0.14453-11.121 0.70312-16.605 1.668-9.8789 1.4492-19.66 3.5078-29.285 6.1719-10.176 3.3633-19.77 8.2812-28.445 14.578-2.2031 1.5-4.3047 3.0859-6.3359 4.7422-0.60156-2.6719-1.2578-5.3359-2.0352-7.9688-2.5156-8.8164-6.5586-17.121-11.953-24.535-5.5078-7.2305-11.875-13.758-18.965-19.441-1.3047-1.0859-2.8125-1.9961-4.1328-2.9922h-0.003906c-5.3047-3.8242-11.035-7.0273-17.07-9.543-6.7305-2.6211-13.723-4.5078-20.859-5.625-4.2148-0.69922-8.4805-1.0117-12.75-0.9375h-3.582-1.5742c-1.2266 0-2.457 0-3.6758 0.054688-3.918 0.24219-7.8086 0.55469-11.691 1.0781-5.793 0.78906-11.586 1.6016-17.316 2.7461-3.1328 0.61719-6.1953 1.3398-9.2812 2.0898v0.003906c-4.6914 0.94531-9.2812 2.3398-13.703 4.1719-3.543 1.5859-6.9102 3.5352-10.051 5.8125-7.25 5.3477-13.832 11.539-19.613 18.449-5.7266 7.0625-10.223 15.043-13.293 23.605-3.5469 9.2812-5.9805 18.953-7.2461 28.809-2.7383-2.8125-5.5781-5.457-8.4375-8.0234-3.7305-3.1172-7.6953-5.9375-11.859-8.4375-7.3164-4.9688-15.059-9.2695-23.141-12.855-5.6172-2.2461-11.43-3.9805-17.359-5.1836-6.1211-1.0586-12.344-1.4258-18.547-1.0977-6.3789 0.35156-12.723 1.1836-18.973 2.4961-7.1797 1.1719-14.234 3.0039-21.074 5.4648-12.098 5.082-22.648 13.246-30.602 23.68-10.52 12.578-18.426 27.129-23.25 42.797-2.8555 8.4492-4.5938 17.23-5.1641 26.129-0.41406 8.9414 0.21484 17.898 1.875 26.691 1.3203 8.3086 3.6953 16.414 7.0664 24.121 2.6641 5.332 5.6445 10.496 8.9258 15.469 7.3984 11.727 16.344 22.402 26.598 31.734 5.7734 5.0781 12.004 9.6055 18.617 13.527 1.3867 0.86328 2.8125 1.707 4.1641 2.5703-14.461 1.5352-28.762 4.3281-42.742 8.3438-5.9102 1.8945-11.484 4.7227-16.508 8.3711-4.5117 3.6289-8.5547 7.8086-12.027 12.441-3.4414 4.4375-6.4844 9.168-9.0938 14.137-3.4062 6.1562-5.8594 12.797-7.2773 19.688-0.53125 3.9492-0.69531 7.9375-0.49609 11.918-0.054688 2.4648 0.027344 4.8438 0.1875 7.2266zm365.96 693.18c0.64844-2.4297 1.2852-4.8555 1.9961-7.4258l5.625-17.438c1.4922-4.6875 3.4961-9.2266 5.418-13.648 0.9375-2.0898 1.8086-4.1523 2.6719-6.2344 2.082-5.0547 4.5273-10.004 6.8984-14.793l0.19531-0.38281 0.87109-1.7422c5.4766-11.035 10.031-19.48 14.746-27.395l0.007813-0.003906c9.0664-14.68 19.719-28.316 31.762-40.672 7.7617-7.1094 16.191-13.453 25.172-18.945 7.3516-3.6758 15.051-6.5977 22.988-8.7266 10.07-2.375 20.352-3.7461 30.695-4.0977 3.2852 0.3125 6.543 0.875 9.75 1.6758 0.74219 0.27344 1.4727 0.55469 2.2227 0.86328l0.65625 0.53516h-0.003907c1.75 2.1758 3.3594 4.457 4.8203 6.8359 4.6094 9.4375 8.3711 19.266 11.25 29.371 0.75 3.4883 1.4453 6.9805 2.0898 10.48 1.0703 5.3633 1.8281 10.781 2.2773 16.227-0.33984 2.5742-0.83984 5.1211-1.4883 7.6328-4.0469 11.492-9.2422 22.547-15.516 32.992-5.0508 7.125-10.539 13.934-16.426 20.391l-0.75 0.81641c-5.1172 5.4766-10.398 11.137-15.73 16.641v-0.003907c-4.4297 3.9648-9.1523 7.5898-14.129 10.84-4.5078 2.8789-9.375 5.8047-14.82 8.9258-17.172 8.5156-35.051 15.52-53.438 20.934-15.637 3.1016-31.07 4.9961-49.238 6.8047l-2.0156 0.20703h-0.066406l-0.1875-1.6016c-0.25781-2.082-0.5-4.1484-0.73047-6.207-0.27344-2.8125-0.55469-5.5312-0.84375-8.3242l-0.1875-1.7734c1.1797-4.2461 2.3047-8.5117 3.4102-12.758zm-105.75-543.66-0.5625 0.58203c-4.5547 4.8281-9.2539 9.8242-14.062 14.578-4.7539 4.3672-9.8633 8.9727-15.309 13.125-6.0195 4.5469-12.02 8.6641-18.367 12.555l0.003906-0.003906c-4.7969 2.375-9.793 4.3164-14.938 5.8047-3.4609 0.76953-7.0312 1.4453-10.621 2.043l-2.9805 0.47656c-4.8086 0.87109-9.6641 1.4766-14.539 1.8086-2.7852-0.34766-5.5469-0.85547-8.2695-1.5273-1.3203-0.5-2.6133-1.0742-3.8711-1.7148-0.81641-0.58984-1.6133-1.2188-2.3906-1.875-0.65625-0.85156-1.2852-1.7266-1.875-2.625-2.3281-5.1406-4.2109-10.473-5.625-15.938-1.7461-7.125-2.7969-14.402-3.1328-21.73 0.26562-3.9727 0.78516-7.9258 1.5469-11.832 2.0508-2.5898 4.2422-5.0625 6.5625-7.4141 5.3242-4.4453 10.926-8.543 16.773-12.273l0.9375-0.60156 0.44141-0.30078c5.2891-3.5234 10.742-7.1523 16.293-10.461 1.1523-0.5625 2.2969-1.0859 3.4609-1.6211l0.61719-0.28125c3.0938-1.4453 6.0078-3.1602 8.8203-4.8086h0.054688c9.9453 10.902 21.422 20.301 34.07 27.898 6.043 3.8086 12.324 7.2227 18.805 10.23 2.6055 1.2109 5.3984 2.418 8.5312 3.75 0.39453 0.14844 0.79687 0.28125 1.1914 0.44141l-0.054688 0.054687h0.074219zm-43.742-236.81c3.375-3.0547 6.7969-6.0664 10.266-9.0273v-0.003906c6.0703-3.5703 12.348-6.7734 18.797-9.5977l5.7852-2.4375c3.5781-2.1172 6.5625-5.1016 8.6797-8.6836 0.60156-1.043 1.1328-2.1289 1.5938-3.2422 2.8125-1.4922 5.7461-2.9062 8.6914-4.2383 13.004-5.1328 26.516-8.8594 40.312-11.117l4.1055-0.46875 4.6875-0.55469c4.5859-0.53906 9.2031-0.8125 13.82-0.82422 3.5625 0 7.2383 0.1875 10.875 0.53516 4.1523 0.67578 7.9297 1.3867 11.57 2.1953l0.52344 0.11328v-0.003906c4.9258 0.98047 9.7969 2.2344 14.586 3.75 5.1914 2.6484 10.133 5.7578 14.766 9.293 11.359 9.2578 21.711 19.691 30.883 31.125 8.2227 11.23 15.207 23.32 20.832 36.055 2.7383 6.7109 4.9883 12.75 6.8438 18.477 2.5469 7.9883 4.4961 16.156 5.8203 24.434 1.0859 9.6484 1.875 19.547 2.4375 30.254 0.6875 10.371 0.6875 20.777 0 31.152-0.26172 1.2109-0.54297 2.3984-0.88281 3.6016v-0.003906c-1.4727 2.7812-3.1328 5.4531-4.9688 8.0078-2.6992 3.1406-5.6445 6.0664-8.8008 8.7461-4.3008 3.1406-8.8164 5.9805-13.512 8.4961-5.7383 3.0547-11.586 5.8125-16.059 7.8828-8.3242 3.1133-19.367 7.125-30.863 10.613-6.1133 1.875-12.336 3.5234-19.023 5.1094-4.4805 1.0586-9.1211 1.7891-13.48 2.4766-8.2227 0.82422-14.914 1.4062-21.055 1.875-5.5039 0.36719-11.914 0.77734-18.234 0.77734-3.6953 0-7.0977-0.14062-10.312-0.41406-6.4609-1.2383-12.793-3.0586-18.926-5.4375-10.094-4.6562-19.711-10.273-28.727-16.773-5.9961-5.0195-11.547-10.551-16.594-16.527-1.0117-1.1992-1.9766-2.4297-2.9258-3.6758l-0.42969-0.62891-0.67578-0.88281 0.61719 0.79688-0.57031-0.84375 0.58984 0.86328v0.003906c-6.5625-9.1992-12.312-18.957-17.176-29.156-2.8125-7.1992-5.2773-14.84-7.5-21.562l-0.62891-1.9766 0.003907-0.003907c-2.7461-8.2734-4.9102-16.734-6.4805-25.312-0.60938-6.3359-0.88281-12.449-1.0703-17.617-0.046875-1.4805-0.11328-2.9609-0.17969-4.4609-0.1875-4.0117-0.39453-8.5586-0.26172-12.965 0.38281-1.5664 0.85156-3.1875 1.4062-4.8008h0.003906c5.8789-11.75 12.84-22.93 20.793-33.391zm94.555 815.02c-5.9453 0.28906-12.02 0.32031-17.926 0.34766h-4.9414l-23.258 0.20703h-5.1484c-10.707 0-21.695-0.30078-31.398-0.5625h-1.8086l0.003906-0.003906c-14.887-0.64062-29.66-2.8984-44.062-6.7305-10.004-3.2266-20.625-7.0039-31.539-11.25-16.16-5.7461-31.832-12.773-46.875-21.02-6.1953-4.1172-12.066-8.6914-18.945-14.305l-2.9805-2.4102-0.30859-0.26172c-4.1797-3.4023-8.5117-6.9102-12.469-10.695v-0.003907c-2.8672-3.3867-5.4766-6.9883-7.8008-10.77-3.8359-8.0586-6.8711-16.473-9.0586-25.125-1.3125-5.6641-2.1875-11.422-2.6133-17.223 0.23438-1.9492 0.57031-3.957 1.0234-5.9922h-0.003907c1.4453-3.7969 3.1719-7.4883 5.1562-11.031 3.6836-5.3672 7.8398-10.387 12.422-15 6.4805-5.8477 13.527-11.039 21.031-15.5 8.2734-4.3555 16.977-7.8477 25.969-10.422 9.0312-2.0156 18.211-3.3047 27.449-3.8555 2.6289 0.27734 5.2383 0.72656 7.8086 1.3516 5.375 1.9336 10.574 4.332 15.535 7.1719 12.879 8.5742 25.117 18.082 36.609 28.441 10.961 9.7109 22.602 20.102 33.602 30.938 9.0078 9.8828 16.93 19.367 24.207 28.988 1.5391 2.0352 3.1016 4.0586 4.6875 6.0664 2.8125 3.6484 5.3828 6.9453 7.8086 10.312 4.0977 5.6797 7.9219 11.953 11.008 16.996 3.5898 6.7031 6.2734 11.84 8.6719 16.688 1.0508 2.1172 2.1016 4.2383 3.2266 6.5625 2.2969 4.6875 4.6875 9.5352 7.2188 14.184l1.3125 2.3984 0.46875 0.84375c1.6133 2.9336 3.2617 5.9336 4.9609 8.9336l0.9375 1.5859zm129.21-515.97c-1.1797 3.8281-2.6367 7.5625-4.3672 11.176-2.2812 3.1289-4.7852 6.0859-7.5 8.8477-3.8594 3.4219-7.9883 6.5312-12.348 9.293-9.0664 4.4648-18.965 6.9883-29.062 7.4062-1.3281-0.15625-2.6484-0.38281-3.957-0.67578-4.1758-1.6797-8.2148-3.6875-12.074-6.0117-5.5547-3.7188-10.84-7.8242-15.816-12.289-3.0586-3.2539-5.9102-6.6992-8.5312-10.312-3.2812-4.5664-7.0781-9.9297-10.539-15.555h0.003906c-2.4062-5.043-4.375-10.285-5.8906-15.664-1.3594-6.9375-2.5039-14.062-3.4492-21.18-0.48828-3.7969-0.9375-7.5859-1.332-11.383v-0.34766c11.164-0.77734 19.773-1.4336 28.82-2.9258l13.125-2.1367c2.8125-0.44922 5.7656-1.2109 8.3516-1.875 1.3203-0.34766 2.6523-0.67578 3.957-0.98438 6.0547-1.4336 12.074-3.4688 17.992-5.457l3.1484-1.0508c7.5859-2.5117 15.086-5.2891 22.742-8.1484 4.4258-1.6797 9.0391-3.75 14.117-6.1875l0.046875 0.046875c0.09375 1.5469 0.19531 3.0859 0.32031 4.6133 0.58203 6.9766 1.207 13.953 1.875 20.934 0.42188 4.2656 0.85156 8.5117 1.3047 12.777l0.54297 5.2695 0.46875 4.2383v0.33594c0.67578 6.2266 1.3789 12.656 1.5078 19.004l0.003906 0.007812c-0.62891 6.1641-1.7852 12.266-3.4609 18.234zm135.8-158.44c0.76953 1.332 1.4727 2.6914 2.2031 4.0234-0.70312-1.3047-1.4141-2.5977-2.1562-3.9102h0.003907c2.1797 4.5508 3.9883 9.2773 5.3984 14.125 3.0039 15.188 4.5938 30.617 4.7422 46.098-0.25 4.0078-0.79297 7.9961-1.6211 11.926-0.21484 0.52344-0.46094 1.0391-0.69531 1.5742l-0.34766 0.41406h0.003906c-2.4492 1.8633-5.0117 3.5703-7.6797 5.1094-6.0664 3.207-11.492 5.7734-16.602 7.8672v-0.003907c-5.1211 2.0859-10.359 3.8555-15.695 5.2969-7.9531 1.8359-16.031 3.0664-24.168 3.6875l-1.293-0.62891c-1.7227-1.3906-3.3672-2.8789-4.9219-4.4531-1.5547-1.707-3.1211-3.4141-4.6875-5.1367-3.0781-3.4844-5.8438-7.2305-8.2695-11.195-2.9531-4.6211-6-9.6367-9.5703-15.75-0.58984-1.1719-1.1719-2.3711-1.7422-3.5547l-0.26172-0.55469-0.003906 0.003906c-1.7969-4.0117-3.918-7.8672-6.3477-11.531-0.28906-0.40234-0.58984-0.78906-0.9375-1.1719l-0.20703-0.30078c3.2422-3.9023 6.2773-7.9688 9.0938-12.188 3.3125-5.0977 5.9297-10.613 7.7734-16.406 1.5273-5.1836 2.3867-10.539 2.5586-15.938l0.16016-1.9414c0.12109-1.4727 0.24219-2.9531 0.26172-4.4258 0.16016-9.7891-0.09375-20.277-0.72266-32.148h0.046874v0.003906c0.63672 1.2852 1.3867 2.5117 2.2422 3.6641 2.4688 3.3516 5.7539 6.0156 9.543 7.7344 4.6133 2.1172 9.5586 3.4102 14.617 3.8242l1.1328 0.16797 2.5391 0.38281 0.44141 0.074219c4.5547 0.75 9.2539 1.5078 13.82 2.6445v0.003906c4.8672 1.7773 9.5742 3.9727 14.062 6.5625 4.293 2.7422 8.3672 5.8086 12.188 9.1797 1.0312 1.1719 2.0156 2.3711 2.9609 3.6172 0.62891 0.86328 1.1992 1.7539 1.7422 2.6523zm-46.547-29.559 2.5391-0.61719zm3.75-0.9375c0.19531 0 0.39453-0.085937 0.58984-0.14844-0.16406 0.0625-0.39062 0.10156-0.58594 0.15625zm0.29297-139.26c3.1602-0.75 6.3477-1.4062 9.5625-2.0234 4.5117-0.94141 9.0781-1.6055 13.668-1.9883 1.0391 0.79688 2.043 1.6211 3.0273 2.4922 2.1406 2.5938 4.0898 5.3398 5.832 8.2148 1.9492 4.0195 3.582 8.1836 4.8867 12.457 2.0742 8.7656 3.3281 17.703 3.75 26.699-0.35547 3.6992-0.98437 7.3633-1.875 10.969-0.8125 2.0586-1.75 4.0625-2.8125 6-3.0078 4.3242-6.3516 8.3984-10.004 12.188-4.1133 3.6719-8.5 7.0156-13.125 10.016-3.5742 1.4961-7.2422 2.7656-10.98 3.7969-3.75 1.125-7.5 2.1836-11.43 3.2344h0.003906c-8.0898 0.63672-15.582 4.4961-20.793 10.715l-1.6328 2.6445-1.6211 2.6445c-0.28906 0.64844-0.55469 1.3047-0.84375 1.9688-0.085937 0.24219-0.09375 0.49609-0.16797 0.73047v-0.28906l-0.054687 0.11328c-0.19531-1.875-0.44922-3.6758-0.69531-5.5039-0.1875-1.2578-0.36719-2.5117-0.52344-3.75l-0.003906-0.003906c-1.3594-11.387-3.7266-22.629-7.0781-33.598-3.7266-11.367-8.1289-22.5-13.18-33.34-2.832-6.207-5.9961-12.258-9.4883-18.121-1.0586-1.7539-2.2422-3.4219-3.3477-5.1367 0.26172 0.25391 0.44141 0.58984 0.73047 0.83594l-0.10156-0.17969c0.23438 0.20703 0.48828 0.41406 0.74219 0.60938 3.4961 2.9961 7.7305 5.0156 12.262 5.8477 1.3516 0.22656 2.7227 0.33984 4.0977 0.33984 3.582-0.054687 7.1367-0.66406 10.535-1.8086 3.2266-1.1055 6.3789-2.4102 9.4414-3.9102 3.6641-1.7422 7.3203-3.4883 11.023-5.1641v-0.003907c6.5742-2.9648 13.316-5.5352 20.195-7.6953zm-137.46-64.539c0.55469-1.8086 1.0312-3.4219 1.5078-5.0352l0.23438-0.9375v-0.11328c0-0.40234 0.10156-0.81641 0.16797-1.2461 0.20703-0.9375 0.40234-1.9492 0.55469-2.9805 0.13281-0.81641 0.27344-1.6211 0.42188-2.457 0.14844-0.83594 0.375-1.7617 0.60938-2.6328 2.207-5.7188 4.9062-11.242 8.0625-16.5 5.1875-8.4219 11.082-16.383 17.625-23.801 4.4688-3.7461 9.2422-7.1133 14.27-10.07 3.8438-1.8867 7.832-3.4531 11.934-4.6875 3.8164-0.84375 7.0117-1.4609 10.051-1.9492l3.6172-0.5625c5.0781-0.89062 10.195-1.5156 15.34-1.875 0.67578 0.074219 1.3516 0.17969 2.0625 0.32812 1.875 0.74609 3.707 1.6016 5.4844 2.5586 3.7422 2.5859 7.2852 5.4531 10.594 8.5781 2.9141 3.3008 5.5508 6.832 7.8828 10.566 2.4766 5.3398 4.4648 10.895 5.9453 16.594 1.3008 6.1133 2.125 12.32 2.4648 18.562-0.30078 2.7773-0.77734 5.5312-1.4258 8.25-1.4219 3.1875-3.0586 6.2734-4.8945 9.2422-3.7891 5.9844-8.0508 11.66-12.738 16.969-4.2109 3.4297-8.4375 6.4961-13.594 10.051-2.4453 1.707-4.875 3.4219-7.2852 5.1836l-1.3125 0.9375c-4.2266 2.7188-8.0195 6.0586-11.25 9.9102-3.9766 5.0195-5.8516 11.383-5.2422 17.758 0.17188 1.5391 0.46484 3.0625 0.88281 4.5547 0.26172 0.64062 0.55469 1.2656 0.87891 1.875-0.19531-0.27344-0.38281-0.54297-0.58984-0.81641l0.054687 0.19531 0.003906 0.003906c-5.9062-8.0234-12.285-15.688-19.098-22.953-8.918-9.3828-18.645-17.965-29.062-25.648-5.1641-3.9375-10.695-7.3672-16.52-10.238-0.63672-0.30859-1.3398-0.50781-1.9883-0.80469l0.12109-0.10156v-0.003907c1.9141-1.875 3.3594-4.168 4.2305-6.7031zm-146.18-86.922c1.418-4.1406 3.1484-8.1641 5.1758-12.039 2.2148-2.9844 4.6484-5.8047 7.2734-8.4375 1.9883-1.75 4.0703-3.3867 6.2344-4.9141 1.582-0.66797 3.2031-1.2539 4.8477-1.75 12.289-2.8203 24.832-4.3906 37.434-4.6875 3.9375 0.36328 7.8398 1.0312 11.672 1.9961 2.7344 1.0273 5.3984 2.2383 7.9688 3.6289 3.9648 2.7969 7.6953 5.9102 11.156 9.3086 1.9883 2.3203 3.832 4.7617 5.5117 7.3125 1.2812 2.8984 2.3672 5.8789 3.2461 8.9258 2.9102 12.887 4.4609 26.043 4.6211 39.25-0.24219 5.2188-0.77344 10.418-1.5938 15.574-0.38281 2.3438-0.81641 4.6875-1.2461 6.9922l-0.71094 3.9922c-0.5625 2.5977-1.0117 5.2422-1.332 7.8555v0.003906c-0.39063 3.125-0.26172 6.293 0.38281 9.375 0.074219 0.33594 0.25391 0.64844 0.33594 0.98438h-0.11328v0.054688l-4.8477-0.61719-1.6797-0.20703h0.003907c-3.3984-0.41797-6.8203-0.62109-10.246-0.60938-5.2695 0.03125-10.531 0.375-15.758 1.0312l-0.81641 0.085938c-7.1328 0.82422-14.523 1.6875-21.758 2.8125h-0.003906c-12.293 2.0312-24.344 5.3281-35.961 9.832-0.87109 0.32812-1.7344 0.67578-2.6523 0.9375l-0.28906 0.13281c-0.42969-3.2617-0.99219-6.5625-1.5938-10.004l-0.44922-2.5781c-1.1328-6.8359-2.0703-12.523-2.8789-18.441-1.0078-7.082-1.9297-14.176-2.7695-21.289l-0.16797-1.4258v-0.30078c-1.1523-8.2656-1.8672-16.586-2.1367-24.926 0.51172-6.0352 1.5625-12.012 3.1406-17.859zm-175.02 104.88c-1.5352-3.293-2.8086-6.7031-3.8047-10.199-1.2852-6.0938-2.043-12.289-2.2695-18.516 0.40625-4.75 1.2227-9.4531 2.4375-14.062 2.3242-6.7812 5.2578-13.34 8.7656-19.594 3.3281-5.0547 7.0703-9.8242 11.184-14.258 1.332-1.0586 2.6797-2.0547 4.1445-3.0273 2.3242-1.0234 4.7031-1.9062 7.125-2.6562 7.4062-1.6445 14.93-2.7109 22.5-3.1875 2.9141 0.28516 5.8047 0.76563 8.6523 1.4453 4.5273 1.6875 8.918 3.7266 13.125 6.0938 2.2422 1.4453 4.4609 2.8984 6.6562 4.3867 4.125 2.8594 8.0117 6.0469 11.617 9.5352 5.4258 6.043 10.391 12.484 14.859 19.266 4.1445 6.2812 8.3711 13.125 13.688 22.219 3.2383 5.9922 6.0938 12.188 8.5391 18.543 0.49609 1.3047 0.98437 2.5977 1.4609 3.8984 0.80469 2.1953 1.6211 4.4062 2.5117 6.5625 0.38281 0.9375 0.78906 1.875 1.1914 2.8125l0.9375 2.1953c0.46094 1.0859 0.9375 2.1641 1.4531 3.2148 0.51562 1.0508 0.81641 1.875 1.2734 2.8125-3.4414 2.6055-7.0703 5.4922-11.09 8.8594-2.0625 1.332-4.0781 2.7383-5.9727 4.1914h0.003907c-3.0586 2.2461-5.9883 4.6602-8.7852 7.2305-1.5508 1.5508-2.9609 3.2344-4.2188 5.0312-5.8984 5.2031-11.699 10.695-17.336 16.012l-0.46094 0.44141-3.4688 3.2812h0.003906c-0.8125 0.76953-1.5742 1.5859-2.2852 2.4492-7.6953-4.6875-14.211-8.5508-20.504-12.066-3.8359-2.1367-7.707-4.1992-11.586-6.2734l-2.2422-1.2109c-1.875-1.0039-3.7969-2.0352-5.625-3.0664v0.003906c-9.0547-5.3984-17.535-11.703-25.312-18.816-6.4766-7.2695-12.227-15.156-17.168-23.551zm-26.68 151.59c1.0898-2.6445 2.3438-5.2227 3.75-7.7148 1.832-2.625 3.8242-5.1289 5.9727-7.5 2.7109-1.1445 5.5391-2.1562 8.9453-3.2148 10.586-2.2227 21.395-3.5547 31.566-4.7344 2.375-0.27344 4.7578-0.55859 7.1523-0.85156h0.32031l-0.003906-0.003906c9.3594-1.332 18.789-2.1289 28.238-2.3789 3.0078 0.085938 6.0156 0.16406 9.0273 0.22656l2.6914 0.085937h0.23438l0.20703 5.832v-0.003906c0.18359 14.168 1.9844 28.273 5.3594 42.035 2.0078 7.3672 4.4141 15.422 7.3789 24.609 1.6016 4.9414 3.6094 10.359 6.2344 16.875l1.0781 2.5312v0.066406c-2.8867 0.25391-5.793 0.51562-8.6914 0.79688-2.0352 0.17969-4.0586 0.38281-6.0938 0.60156l-2.1641 0.20703c-9.1328 0.9375-19.492 2.0078-29.477 2.043-10.004-0.45703-19.941-1.8906-29.672-4.2852-3.7617-1.3828-7.4141-3.0586-10.922-5.0078-3.4023-2.3164-6.6211-4.8906-9.625-7.707-5.5039-6.3945-10.449-13.254-14.785-20.492-1.8984-3.8164-3.4688-7.7852-4.6875-11.867-1.2969-6.3867-2.0078-12.875-2.1289-19.391z"/>
</svg>
